<svg width="1600" height="1200" viewBox="0 0 1600 1200" fill="none" xmlns="http://www.w3.org/2000/svg">
  <rect width="1600" height="1200" rx="48" fill="#FBF5F3"/>
  <circle cx="1190" cy="260" r="220" fill="#F4D9D3"/>
  <circle cx="330" cy="950" r="280" fill="#FCE7E4"/>
  <rect x="120" y="120" width="1360" height="960" rx="36" fill="white"/>
  <rect x="220" y="210" width="520" height="380" rx="28" fill="#FAE7E4"/>
  <rect x="790" y="210" width="590" height="180" rx="24" fill="#FFF4F4"/>
  <rect x="790" y="430" width="420" height="30" rx="15" fill="#D79AA1"/>
  <rect x="790" y="490" width="500" height="26" rx="13" fill="#EAC2C6"/>
  <rect x="790" y="550" width="430" height="26" rx="13" fill="#F1D8DB"/>
  <rect x="790" y="635" width="220" height="70" rx="35" fill="#861226"/>
  <rect x="220" y="650" width="1160" height="320" rx="28" fill="#FFF9F8"/>
  <rect x="280" y="730" width="260" height="160" rx="24" fill="#FDECEC"/>
  <rect x="580" y="730" width="260" height="160" rx="24" fill="#FAE0E0"/>
  <rect x="880" y="730" width="260" height="160" rx="24" fill="#F7D6D9"/>
  <text x="220" y="110" fill="#861226" font-family="Georgia, serif" font-size="46">Project iAppreciate 2026</text>
</svg>
